Coordinates
version=1
nRows=38
nColumns=12
inDegrees=yes

Units are S.I. units (second, meters, Newtons, ...)
Angles are in degrees

endheader
time	SC_y	SC_z	SC_x	AC_y	AC_z	AC_x	GH_y	GH_z	GH_yy	EL_x	PS_y
       0.0              -22.27          8.918          43.23          42.89         0.5921          13.08         -154.8          33.48         -133.2          100.0          129.1
  0.003871              -22.27          8.922          43.23          42.89         0.5893          13.08         -154.8          33.47         -133.1          100.0          129.1
  0.007742              -22.28          8.926          43.24          42.89         0.5864          13.08         -154.8          33.47         -133.1          100.0          129.1
   0.01161              -22.28           8.93          43.24          42.89         0.5833          13.08         -154.8          33.46         -133.0          100.0          129.1
   0.01548              -22.29          8.935          43.25          42.89           0.58          13.07         -154.8          33.46         -133.0          100.0          129.1
   0.01936               -22.3           8.94          43.25          42.89         0.5765          13.07         -154.8          33.45         -132.9          100.0          129.1
   0.02323               -22.3          8.945          43.26          42.88         0.5727          13.07         -154.8          33.44         -132.9          100.0          129.0
    0.0271              -22.31          8.951          43.26          42.88         0.5687          13.07         -154.8          33.44         -132.8          100.0          129.0
   0.03097              -22.32          8.957          43.27          42.88         0.5643          13.07         -154.8          33.43         -132.7          100.0          129.0
   0.03484              -22.33          8.963          43.28          42.88         0.5597          13.06         -154.8          33.42         -132.7          100.0          129.0
   0.03871              -22.34           8.97          43.29          42.88         0.5547          13.06         -154.8          33.41         -132.6          100.0          129.0
   0.04258              -22.34          8.978          43.29          42.87         0.5494          13.06         -154.8           33.4         -132.5          100.0          129.0
   0.04645              -22.36          8.986           43.3          42.87         0.5436          13.06         -154.8          33.39         -132.4          100.0          128.9
   0.05032              -22.37          8.994          43.31          42.87         0.5374          13.05         -154.8          33.38         -132.3          100.0          128.9
   0.05419              -22.38          9.004          43.32          42.87         0.5307          13.05         -154.8          33.37         -132.2          100.0          128.9
   0.05807              -22.39          9.014          43.33          42.86         0.5233          13.05         -154.8          33.36         -132.1          100.0          128.9
   0.06194              -22.41          9.025          43.35          42.86         0.5154          13.04         -154.8          33.34         -132.0          100.1          128.8
   0.06581              -22.42          9.037          43.36          42.85         0.5067          13.04         -154.8          33.33         -131.8          100.1          128.8
   0.06968              -22.44           9.05          43.38          42.85         0.4973          13.03         -154.8          33.31         -131.7          100.1          128.8
   0.07355              -22.46          9.065          43.39          42.85         0.4869          13.03         -154.8          33.29         -131.5          100.1          128.7
   0.07742              -22.48           9.08          43.41          42.84         0.4756          13.02         -154.8          33.27         -131.3          100.1          128.7
   0.08129               -22.5          9.098          43.43          42.83         0.4631          13.02         -154.8          33.25         -131.1          100.1          128.7
   0.08516              -22.53          9.117          43.45          42.83         0.4493          13.01         -154.8          33.23         -130.9          100.1          128.6
   0.08903              -22.56          9.138          43.47          42.82          0.434           13.0         -154.8           33.2         -130.6          100.1          128.6
    0.0929              -22.59          9.162           43.5          42.81         0.4169          12.99         -154.8          33.17         -130.4          100.1          128.5
   0.09678              -22.62          9.189          43.53          42.81          0.398          12.98         -154.8          33.14         -130.1          100.1          128.4
    0.1006              -22.66          9.218          43.56           42.8         0.3767          12.97         -154.8           33.1         -129.7          100.1          128.4
    0.1045               -22.7          9.252           43.6          42.79         0.3528          12.96         -154.8          33.06         -129.3          100.1          128.3
    0.1084              -22.75          9.289          43.64          42.77         0.3257          12.95         -154.8          33.01         -128.9          100.1          128.2
    0.1123              -22.81          9.332          43.69          42.76          0.295          12.93         -154.8          32.96         -128.4          100.2          128.1
    0.1161              -22.87          9.381          43.75          42.74           0.26          12.92         -154.8          32.89         -127.9          100.2          127.9
      0.12              -22.95          9.437          43.81          42.73         0.2198           12.9         -154.8          32.82         -127.2          100.2          127.8
    0.1239              -23.03          9.502          43.88           42.7         0.1734          12.87         -154.8          32.74         -126.5          100.2          127.6
    0.1277              -23.13          9.577          43.97          42.68         0.1194          12.85         -154.8          32.65         -125.6          100.2          127.4
    0.1316              -23.25          9.665          44.07          42.65        0.05633          12.82         -154.7          32.54         -124.6          100.3          127.2
    0.1355              -23.38          9.769          44.18          42.62       -0.01807          12.78         -154.7           32.4         -123.4          100.3          127.0
    0.1394              -23.55          9.892          44.32          42.58        -0.1065          12.74         -154.7          32.25         -122.0          100.4          126.6
    0.1432              -23.74          10.04          44.49          42.53        -0.2125          12.69         -154.7          32.06         -120.3          100.4          126.3
